<?xml version="1.0" encoding="iso-8859-1"?>
<!-- Generator: Adobe Illustrator 16.0.4, SVG Export Plug-In . SVG Version: 6.00 Build 0)  -->
<!DOCTYPE svg PUBLIC "-//W3C//DTD SVG 1.1//EN" "http://www.w3.org/Graphics/SVG/1.1/DTD/svg11.dtd">
<svg version="1.1" id="Layer_1" xmlns="http://www.w3.org/2000/svg" xmlns:xlink="http://www.w3.org/1999/xlink" x="0px" y="0px"
	 width="1024px" height="1024px" viewBox="0 0 1024 1024" style="enable-background:new 0 0 1024 1024;" xml:space="preserve">
<path style="fill:#FFFFFF;" d="M1024,768c0,141.385-114.615,256-256,256H256C114.615,1024,0,909.385,0,768V256
	C0,114.615,114.615,0,256,0h512c141.385,0,256,114.615,256,256V768z"/>
<g>
	<path style="fill:#33716F" d="M649.601,848.002L505.6,632.961h-116.16v215.041H241.598V175.998H548.8c158.401,0,253.442,83.521,253.442,221.762v1.92
		c0,108.481-58.561,176.641-144.001,208.32l164.161,240.002H649.601z M652.481,405.439c0-63.36-44.161-96.001-116.161-96.001
		H389.439V502.4H539.2c72,0,113.281-38.4,113.281-95.041V405.439z"/>
</g>
</svg>
