<?xml version="1.0" encoding="utf-8"?>
<!-- Generator: Adobe Illustrator 16.0.4, SVG Export Plug-In . SVG Version: 6.00 Build 0)  -->
<!DOCTYPE svg PUBLIC "-//W3C//DTD SVG 1.1//EN" "http://www.w3.org/Graphics/SVG/1.1/DTD/svg11.dtd">
<svg version="1.1" id="Layer_1" xmlns="http://www.w3.org/2000/svg" xmlns:xlink="http://www.w3.org/1999/xlink" x="0px" y="0px"
	 width="512px" height="512px" viewBox="0 0 512 512" enable-background="new 0 0 512 512" xml:space="preserve">
<g>
	<path d="M254.61,95.199c6.707-2.732,13.415,0.955,19.772,2.885c73.764,24.615,147.527,49.232,221.309,73.78
		c4.946,1.978,11.269,2.531,14.403,7.379c3.973,5.852-0.283,13.883-6.856,15.275c-76.697,25.572-153.413,51.127-230.096,76.714
		c-4.277,1.359-8.486,3.321-13.028,3.556c-4.109-0.234-7.932-1.878-11.771-3.152c-40.496-13.564-81.059-26.947-121.537-40.562
		c2.7-1.677,5.533-3.119,8.501-4.259c37.545-14.873,74.72-30.72,112.885-43.917c6.271-2.28,12.962-3.638,18.747-7.076
		c6.388-4.427,6.07-15.427-0.688-19.384c-6.287-4.293-13.883-0.285-20.256,1.727c-40.443,14.085-80.051,30.385-119.674,46.583
		c-14.371,6.473-29.916,13.03-39.355,26.327c-10.564,14.924-12.894,33.638-14.924,51.312c5.164,4.241,10.245,9.305,11.753,16.08
		c2.934,10.027-1.206,21.345-9.557,27.518c1.258,13.229,3.472,26.395,3.891,39.724c0.335,13.834,1.324,28.037-2.883,41.451
		C70.717,422.75,60.438,437.71,45.296,444.5c-5.467,2.599-11.57,0.806-16.717-1.66c-9.643-4.494-19.485-8.986-27.937-15.528
		c-0.07-0.736-0.205-2.229-0.272-2.966c5.752-7.077,12.71-13.114,18.16-20.442c17.372-21.178,27.031-47.94,29.814-75.023
		c-8.887-4.342-15.344-13.563-15.191-23.609c-0.236-9.993,6.103-19.081,14.772-23.625c2.213-24.297,6.841-49.802,22.754-69.203
		c-17.857-6.086-35.801-11.939-53.674-17.959c-4.445-1.275-8.536-5.165-8.251-10.094c-0.167-4.813,3.724-8.72,8.15-9.894
		C96.135,148.019,175.398,121.659,254.61,95.199z"/>
	<path d="M268.966,300.309c50.892-16.584,101.448-34.256,152.457-50.44c-0.015,2.801-0.031,5.584-0.065,8.384
		c-0.1,22.368,0.588,44.772-0.82,67.106c-1.797,10.984-10.131,19.486-18.696,25.89c-16.82,12.125-36.793,18.917-56.679,24.064
		c-37.16,9.104-75.792,11.134-113.874,8.634c-26.443-2.213-52.938-6.403-78.006-15.376c-16.651-5.602-32.815-13.867-45.174-26.595
		c6.49-7.982,11.771-17.774,10.782-28.389c-0.101-13.514-7.126-26.678-18.748-33.72c0.051-9.659,0.872-19.385,3.858-28.624
		c48.291,16.048,96.551,32.194,144.828,48.31C255.268,301.834,262.394,302.305,268.966,300.309z"/>
</g>
</svg>
