<?xml version="1.0" encoding="iso-8859-1"?>
<!-- Generator: Adobe Illustrator 16.0.4, SVG Export Plug-In . SVG Version: 6.00 Build 0)  -->
<!DOCTYPE svg PUBLIC "-//W3C//DTD SVG 1.1//EN" "http://www.w3.org/Graphics/SVG/1.1/DTD/svg11.dtd">
<svg version="1.1" id="Layer_1" xmlns="http://www.w3.org/2000/svg" xmlns:xlink="http://www.w3.org/1999/xlink" x="0px" y="0px"
	 width="512px" height="256px" viewBox="0 0 512 256" style="enable-background:new 0 0 512 256;" xml:space="preserve">
<g>
	<path class="char c1" d="M49.79,50.992v-8.84h11.39v8.84h20.4v10.54h-20.4v9.86H49.79v-9.86H13.24v-10.54H49.79z
		 M80.389,112.361v-7.99H16.13v-9.86h64.259v-9.01c-15.13,0.34-31.45,0.68-49.129,0.68l-3.23-9.52c45.049,0,82.449-1.7,112.029-4.93
		l5.27,9.35c-15.3,1.7-33.32,3.06-53.72,4.08v9.35h64.43v9.86h-64.43v7.99h51v45.049h-50.83v8.5h57.97v9.35h-57.97v8.67h67.319v9.69
		H13.24v-9.69h66.979v-8.67H22.25v-9.35h57.969v-8.5H29.56v-45.049H80.389z M80.729,130.891v-9.52H41.12v9.52H80.729z
		 M80.729,139.051H41.12v9.35h39.609V139.051z M122.379,42.322v8.67h36.549v10.54h-36.549v8.5h-11.39v-8.5h-20.57v-10.54h20.57
		v-8.67H122.379z M91.269,130.891h39.78v-9.52h-39.78V130.891z M131.049,139.051h-39.78v9.35h39.78V139.051z"/>
	<path class="char c2" d="M226.25,41.982v23.12h26.689v11.22H226.25v24.99h28.899v11.22h-25.67v23.97h24.14v11.22h-24.14
		v32.13c10.71,2.72,30.94,4.25,60.689,4.25c19.72,0,34.34-0.34,44.029-0.85l-2.039,11.9h-39.27c-39.1,0-63.58-2.38-73.439-6.97
		c-8.5-4.08-15.98-11.05-22.44-21.08c-2.55,11.22-5.949,21.59-10.199,31.28l-9.35-8.33c8.5-19.72,13.089-41.99,14.11-66.639
		l10.88,1.19c-0.34,10.03-1.36,19.55-2.72,28.729c5.439,9.52,11.39,16.66,18.02,21.08v-61.879H182.56v-11.22h31.449v-24.99h-28.22
		v-11.22h28.22v-23.12H226.25z M322.638,109.301h-46.239v40.29c0,4.08,2.38,6.29,7.479,6.29h24.14c3.91-0.17,6.631-1.87,8.16-5.1
		c1.19-2.72,2.21-9.35,2.891-20.06l11.56,3.74c-1.021,10.37-2.21,17.85-3.74,22.27c-2.55,6.8-7.649,10.37-15.3,10.71h-32.3
		c-10.029,0-14.96-4.59-14.96-13.6V53.542h58.31V109.301z M310.909,98.081V64.592h-34.51v33.489H310.909z"/>
	<path class="char c3" d="M493.658,77.001c-12.919,10.88-27.539,20.06-44.199,27.37v0.34
		c17.68,7.479,33.83,16.49,48.789,26.859l-7.139,10.71c-13.26-10.37-26.86-18.87-40.8-25.5c1.53,21.419,4.25,36.209,8.33,44.54
		c6.46,13.939,14.11,20.91,22.609,21.25c2.381-0.17,4.42-1.87,6.121-5.27c1.699-3.4,3.061-11.05,4.08-22.61l11.73,3.91
		c-1.701,14.62-4.932,25.33-9.861,31.79c-3.74,3.4-7.479,5.27-11.389,5.27c-12.92-0.17-23.8-8.5-32.47-24.99
		c-8.84-16.83-13.26-52.189-13.26-106.079h-88.909v-12.24h101.148v11.9c0,10.03,0.17,19.38,0.511,28.05
		c13.77-6.63,26.35-14.96,37.74-24.99L493.658,77.001z"/>
</g>
</svg>
