<?xml version="1.0" encoding="iso-8859-1"?>
<!-- Generator: Adobe Illustrator 16.0.4, SVG Export Plug-In . SVG Version: 6.00 Build 0)  -->
<!DOCTYPE svg PUBLIC "-//W3C//DTD SVG 1.1//EN" "http://www.w3.org/Graphics/SVG/1.1/DTD/svg11.dtd">
<svg version="1.1" id="Layer_1" xmlns="http://www.w3.org/2000/svg" xmlns:xlink="http://www.w3.org/1999/xlink" x="0px" y="0px"
	 width="986px" height="208px" viewBox="0 0 986 208" style="enable-background:new 0 0 986 208;" xml:space="preserve">
<g style="enable-background:new    ;">
	<path style="fill:#DBD9CA;" d="M49.42,159.42c-1.98,4.18-5.06,5.061-8.36,5.061C33.8,177.24,15.76,195.281,3,202.76
		c8.14-14.08,18.92-38.5,22.44-57.859L49.42,159.42z M6.08,37.76h15.4V8.06L45.24,12.9c-1.1,4.62-3.08,6.38-6.16,7.92V37.76h21.56
		V8.06l23.54,4.841c-1.1,4.62-2.42,6.38-5.72,7.92V37.76h15.84l-2.2,3.521H78.46v93.06h15.18c2.2-18.92,1.98-37.18,1.98-53.459V15.1
		c6.38,0.66,12.98,3.521,17.38,7.48h22.88l16.94-6.16l1.32,156.42c0,18.041-7.92,25.961-23.32,27.721
		c-1.54-18.699-9.68-19.58-22.88-25.961l20.24,1.102c5.28,0.219,7.04-3.301,7.04-9.9V119.16h-23.32
		c-2.42,39.82-11.66,64.9-39.6,84.48c12.98-22.66,18.7-46.201,21.34-68.42l-1.54,2.859H6.52l-1.54-3.74h16.5V41.28H7.84L6.08,37.76z
		 M39.081,69.66h21.56V41.28h-21.56V69.66z M39.081,101.78h21.56V73.4h-21.56V101.78z M39.081,134.34h21.56v-29.039h-21.56V134.34z
		 M51.4,145.561c16.28,5.5,27.72,14.08,28.38,24.859c0.66,12.32-9.02,18.92-14.96,22.221
		C62.181,179.221,56.681,158.541,51.4,145.561z M112.121,115.42h23.1V72.521h-22.44v2.64
		C112.781,90.12,112.781,103.541,112.121,115.42z M112.781,68.78h22.44V26.32h-22.22L112.781,68.78z"/>
	<path style="fill:#DBD9CA;" d="M221.681,20.16c-0.66,3.08-4.18,5.28-7.48,5.28c-14.3,20.899-30.8,34.1-46.641,45.76
		c11.88-21.56,23.98-44,32.34-67.76L221.681,20.16z M226.96,59.98c-0.88,3.3-3.96,5.5-7.7,5.5c-4.4,9.02-9.46,17.16-14.74,24.42
		l9.24,3.08c-0.66,3.96-2.42,5.28-5.72,6.82l0.22,95.48c-5.06,5.719-14.96,6.82-19.58,6.16V108.82
		c-6.6,7.039-13.42,13.42-20.46,19.801c14.52-26.181,27.94-53.681,36.3-84.041L226.96,59.98z M215.521,112.121h61.6V85.5l26.4,5.28
		c0.66,3.96-1.98,7.04-6.16,7.48v13.86h27.06l-1.98,3.299h-25.08l0.66,52.58c0,29.041-11.22,32.561-28.38,33.66
		c-0.66-13.859-9.68-22-23.76-27.279l24.42,0.879c4.84,0.221,7.04-3.959,7.04-10.779l-0.22-49.061h-60.28L215.521,112.121z
		 M221.241,40.4h35.2V3l25.96,5.94c-0.88,3.08-2.64,6.159-5.72,7.04V40.4h40.92l-2.2,3.52h-38.72v33.44h47.521l-1.98,3.74H218.82
		l-1.76-3.74h39.38V43.92H222.78L221.241,40.4z M224.98,124.881c13.86,1.539,29.04,6.82,31.02,18.699
		c2.2,11.881-7.48,18.701-14.96,23.32C236.86,151.939,231.801,139.4,224.98,124.881z"/>
	<path style="fill:#DBD9CA;" d="M334.98,136.76h103.18l-1.98,3.521H336.52L334.98,136.76z M432.881,178.121
		c12.76,0.879,15.84-3.521,16.28-11.881l3.08-73.92h-70.18l-1.1,12.32c-9.46,2.86-18.7-2.64-22-9.68
		c3.96-28.381,6.82-58.521,9.46-88.661l28.16,4.84c0,4.62-3.08,8.141-7.04,7.7L386.9,44.36h101.421l-1.98,3.52h-99.88l-3.96,40.7
		h69.96v-0.22l21.34-7.479l-3.96,91.74c-1.1,28.379-19.14,31.68-35.64,31.68c1.54-12.541-12.54-24.42-27.06-28.381L432.881,178.121z
		"/>
	<path style="fill:#DBD9CA;" d="M556.961,12.9c0.439,5.72-5.5,8.14-7.261,8.14c-2.859,10.78-7.26,24.2-13.42,38.061l8.58,1.54
		c-0.22,4.399-5.28,8.359-7.479,9.02l0.22,125.4c-5.72,7.041-14.08,8.359-19.8,8.359V94.08c-5.721,8.58-12.101,16.5-18.921,23.1
		c11.881-30.799,25.08-71.72,29.48-113.3L556.961,12.9z M586.661,102.881c1.54,4.84-1.761,8.359-6.16,7.26
		c-5.721,17.6-18.92,46.42-36.74,65.561c6.819-18.701,15.84-56.762,18.479-80.74L586.661,102.881z M655.081,52.94
		c0.22,5.939-5.5,6.82-7.92,6.6c-7.92,10.12-16.061,19.36-25.521,27.721l7.48-35.421h-48.4c-7.26,17.82-17.82,37.621-32.78,52.141
		c5.72-14.3,20.46-63.36,21.78-99.66l28.6,6.6c0.881,5.72-3.52,9.021-6.6,9.24c-2.2,7.48-5.28,17.38-9.46,28.16h47.74l2.64-12.101
		L655.081,52.94z M582.48,179.66c6.601,0.439,8.8-6.82,8.8-14.959V63.721l25.081,5.06c0.88,5.061-0.66,9.021-5.94,7.04v98.121
		c0,27.719-8.8,28.6-25.74,29.699c-0.66-13.199-9.9-20.461-23.54-25.52L582.48,179.66z M614.601,89.9
		c22.881,20.24,36.08,42.68,38.061,57.859c1.979,13.641-3.74,23.32-15.62,25.961C633.301,154.58,623.621,114.541,614.601,89.9z"/>
	<path style="fill:#DBD9CA;" d="M739.78,160.301c-1.1,5.279-5.5,7.039-10.12,5.279c-19.14,20.461-39.6,32.121-66,41.141
		c20.24-19.141,36.521-40.92,48.4-66L739.78,160.301z M672.9,60.2h29.92V10.04l28.38,5.5c0,6.16-2.64,8.14-7.479,8.8V60.2h31.9
		V10.04l29.04,5.5c0,6.16-2.641,8.14-7.48,8.8V60.2h36.08l-1.979,3.74h-34.101v63.36h42.24l-1.979,3.52H668.5l-1.54-3.52h35.86
		V63.94h-28.38L672.9,60.2z M723.721,127.301h31.9V63.94h-31.9V127.301z M750.78,144.9c32.341,7.92,51.261,25.74,52.36,34.98
		c1.32,11-5.279,20.459-13.42,27.5C782.901,193.961,760.461,156.121,750.78,144.9z"/>
	<path style="fill:#DBD9CA;" d="M832.62,30.28h62.48V3.66l28.82,5.06c0.439,3.74-3.08,9.24-7.26,8.801v12.76h65.34l-1.979,3.52
		h-63.36l-0.221,17.16h27.061l19.36-7.479v45.76c-3.74,1.101-14.301,0-19.58-5.279H916.44v19.359h27.28l20.021-7.92v32.34h21.12
		l-1.98,3.52h-19.14v42.461c-3.74,1.1-15.181,2.859-20.46-3.08V158.76H916.44v20.9c0,16.281-10.34,24.42-31.02,25.08
		c1.319-11.879-7.48-23.1-24.2-29.26l27.06,1.76c4.62,0.221,6.82-2.641,6.82-8.58v-9.9h-51.04l-1.54-3.74h52.58v-23.76h-62.92
		l-1.54-3.52h64.46v-20.899h-51.04l-1.54-3.521h52.58V83.961h-26.62v6.6c-6.6,4.62-13.86,5.5-20.021,5.28V43.92
		c7.04,0.88,14.08,3.08,20.021,7.04h26.62V33.8h-60.94L832.62,30.28z M868.48,80.44h26.62V54.7h-26.62V80.44z M916.44,80.44h26.62
		V54.7h-26.62V80.44z M916.44,127.74h26.841v-20.899H916.44V127.74z M916.44,155.02h26.841v-23.76H916.44V155.02z"/>
</g>
<g style="enable-background:new    ;">
	<path style="fill:#FFFFFF;" d="M46.42,156.42c-1.98,4.18-5.06,5.061-8.36,5.061C30.8,174.24,12.76,192.281,0,199.76
		c8.14-14.08,18.92-38.5,22.44-57.859L46.42,156.42z M3.08,34.76h15.4V5.06L42.24,9.9c-1.1,4.62-3.08,6.38-6.16,7.92V34.76h21.56
		V5.06L81.181,9.9c-1.1,4.62-2.42,6.38-5.72,7.92V34.76h15.84l-2.2,3.521H75.46v93.06h15.18c2.2-18.92,1.98-37.18,1.98-53.459V12.1
		c6.38,0.66,12.98,3.521,17.38,7.48h22.88l16.94-6.16l1.32,156.42c0,18.041-7.92,25.961-23.32,27.721
		c-1.54-18.699-9.68-19.58-22.88-25.961l20.24,1.102c5.28,0.219,7.04-3.301,7.04-9.9V116.16h-23.32
		c-2.42,39.82-11.66,64.9-39.6,84.48c12.98-22.66,18.7-46.201,21.34-68.42l-1.54,2.859H3.52l-1.54-3.74h16.5V38.28H4.84L3.08,34.76z
		 M36.081,66.66h21.56V38.28h-21.56V66.66z M36.081,98.78h21.56V70.4h-21.56V98.78z M36.081,131.34h21.56v-29.039h-21.56V131.34z
		 M48.4,142.561c16.28,5.5,27.72,14.08,28.38,24.859c0.66,12.32-9.02,18.92-14.96,22.221
		C59.181,176.221,53.681,155.541,48.4,142.561z M109.121,112.42h23.1V69.521h-22.44v2.64
		C109.781,87.12,109.781,100.541,109.121,112.42z M109.781,65.78h22.44V23.32h-22.22L109.781,65.78z"/>
	<path style="fill:#FFFFFF;" d="M218.681,17.16c-0.66,3.08-4.18,5.28-7.48,5.28c-14.3,20.899-30.8,34.1-46.641,45.76
		c11.88-21.56,23.98-44,32.34-67.76L218.681,17.16z M223.96,56.98c-0.88,3.3-3.96,5.5-7.7,5.5c-4.4,9.02-9.46,17.16-14.74,24.42
		l9.24,3.08c-0.66,3.96-2.42,5.28-5.72,6.82l0.22,95.48c-5.06,5.719-14.96,6.82-19.58,6.16V105.82
		c-6.6,7.039-13.42,13.42-20.46,19.801c14.52-26.181,27.94-53.681,36.3-84.041L223.96,56.98z M212.521,109.121h61.6V82.5l26.4,5.28
		c0.66,3.96-1.98,7.04-6.16,7.48v13.86h27.06l-1.98,3.299h-25.08l0.66,52.58c0,29.041-11.22,32.561-28.38,33.66
		c-0.66-13.859-9.68-22-23.76-27.279l24.42,0.879c4.84,0.221,7.04-3.959,7.04-10.779l-0.22-49.061h-60.28L212.521,109.121z
		 M218.241,37.4h35.2V0l25.96,5.94c-0.88,3.08-2.64,6.159-5.72,7.04V37.4h40.92l-2.2,3.52h-38.72v33.44h47.521l-1.98,3.74H215.82
		l-1.76-3.74h39.38V40.92H219.78L218.241,37.4z M221.98,121.881c13.86,1.539,29.04,6.82,31.02,18.699
		c2.2,11.881-7.48,18.701-14.96,23.32C233.86,148.939,228.801,136.4,221.98,121.881z"/>
	<path style="fill:#FFFFFF;" d="M331.98,133.76h103.18l-1.98,3.521H333.52L331.98,133.76z M429.881,175.121
		c12.76,0.879,15.84-3.521,16.28-11.881l3.08-73.92h-70.18l-1.1,12.32c-9.46,2.86-18.7-2.64-22-9.68
		c3.96-28.381,6.82-58.521,9.46-88.661l28.16,4.84c0,4.62-3.08,8.141-7.04,7.7L383.9,41.36h101.421l-1.98,3.52h-99.88l-3.96,40.7
		h69.96v-0.22l21.34-7.479l-3.96,91.74c-1.1,28.379-19.14,31.68-35.64,31.68c1.54-12.541-12.54-24.42-27.06-28.381L429.881,175.121z
		"/>
	<path style="fill:#FFFFFF;" d="M553.961,9.9c0.439,5.72-5.5,8.14-7.261,8.14c-2.859,10.78-7.26,24.2-13.42,38.061l8.58,1.54
		c-0.22,4.399-5.28,8.359-7.479,9.02l0.22,125.4c-5.72,7.041-14.08,8.359-19.8,8.359V91.08c-5.721,8.58-12.101,16.501-18.921,23.1
		c11.881-30.799,25.08-71.72,29.48-113.3L553.961,9.9z M583.661,99.881c1.54,4.84-1.761,8.359-6.16,7.26
		c-5.721,17.6-18.92,46.42-36.74,65.561c6.819-18.701,15.84-56.762,18.479-80.74L583.661,99.881z M652.081,49.94
		c0.22,5.939-5.5,6.82-7.92,6.6c-7.92,10.12-16.061,19.36-25.521,27.721l7.48-35.421h-48.4c-7.26,17.82-17.82,37.621-32.78,52.141
		c5.72-14.3,20.46-63.36,21.78-99.66l28.6,6.6c0.881,5.72-3.52,9.021-6.6,9.24c-2.2,7.48-5.28,17.38-9.46,28.16h47.74l2.64-12.101
		L652.081,49.94z M579.48,176.66c6.601,0.439,8.8-6.82,8.8-14.959V60.721l25.081,5.06c0.88,5.061-0.66,9.021-5.94,7.04v98.121
		c0,27.719-8.8,28.6-25.74,29.699c-0.66-13.199-9.9-20.461-23.54-25.52L579.48,176.66z M611.601,86.9
		c22.881,20.24,36.08,42.68,38.061,57.859c1.979,13.641-3.74,23.32-15.62,25.961C630.301,151.58,620.621,111.541,611.601,86.9z"/>
	<path style="fill:#FFFFFF;" d="M736.78,157.301c-1.1,5.279-5.5,7.039-10.12,5.279c-19.14,20.461-39.6,32.121-66,41.141
		c20.24-19.141,36.521-40.92,48.4-66L736.78,157.301z M669.9,57.2h29.92V7.04l28.38,5.5c0,6.16-2.64,8.14-7.479,8.8V57.2h31.9V7.04
		l29.04,5.5c0,6.16-2.641,8.14-7.48,8.8V57.2h36.08l-1.979,3.74h-34.101v63.36h42.24l-1.979,3.52H665.5l-1.54-3.52h35.86V60.94
		h-28.38L669.9,57.2z M720.721,124.301h31.9V60.94h-31.9V124.301z M747.78,141.9c32.341,7.92,51.261,25.74,52.36,34.98
		c1.32,11-5.279,20.459-13.42,27.5C779.901,190.961,757.461,153.121,747.78,141.9z"/>
	<path style="fill:#FFFFFF;" d="M829.62,27.28h62.48V0.66l28.82,5.06c0.439,3.74-3.08,9.24-7.26,8.801v12.76h65.34l-1.979,3.52
		h-63.36l-0.221,17.16h27.061l19.36-7.479v45.76c-3.74,1.101-14.301,0-19.58-5.279H913.44v19.359h27.28l20.021-7.92v32.34h21.12
		l-1.98,3.52h-19.14v42.461c-3.74,1.1-15.181,2.859-20.46-3.08V155.76H913.44v20.9c0,16.281-10.34,24.42-31.02,25.08
		c1.319-11.879-7.48-23.1-24.2-29.26l27.06,1.76c4.62,0.221,6.82-2.641,6.82-8.58v-9.9h-51.04l-1.54-3.74h52.58v-23.76h-62.92
		l-1.54-3.52h64.46v-20.899h-51.04l-1.54-3.521h52.58V80.961h-26.62v6.6c-6.6,4.62-13.86,5.5-20.021,5.28V40.92
		c7.04,0.88,14.08,3.08,20.021,7.04h26.62V30.8h-60.94L829.62,27.28z M865.48,77.44h26.62V51.7h-26.62V77.44z M913.44,77.44h26.62
		V51.7h-26.62V77.44z M913.44,124.74h26.841v-20.899H913.44V124.74z M913.44,152.02h26.841v-23.76H913.44V152.02z"/>
</g>
</svg>
