<?xml version="1.0" encoding="iso-8859-1"?>
<!-- Generator: Adobe Illustrator 16.0.4, SVG Export Plug-In . SVG Version: 6.00 Build 0)  -->
<!DOCTYPE svg PUBLIC "-//W3C//DTD SVG 1.1//EN" "http://www.w3.org/Graphics/SVG/1.1/DTD/svg11.dtd">
<svg version="1.1" id="Layer_1" xmlns="http://www.w3.org/2000/svg" xmlns:xlink="http://www.w3.org/1999/xlink" x="0px" y="0px"
	 width="1024px" height="1024px" viewBox="0 0 1024 1024" style="enable-background:new 0 0 1024 1024;" xml:space="preserve">
<path style="fill:#F2A900;" d="M1024,768c0,141.385-114.615,256-256,256H256C114.615,1024,0,909.385,0,768V256
	C0,114.615,114.615,0,256,0h512c141.385,0,256,114.615,256,256V768z"/>
<g style="display:none;">
	<path style="display:inline;fill:#FFFFFF;" d="M126.485,425.361c6.997-0.918,11.932-2.348,14.812-4.292
		c4.73-3.166,8.332-9.243,10.801-18.236l38.83-141.852c1.13-4.209,1.953-7.7,2.469-10.473c0.513-2.772,0.771-4.928,0.771-6.471
		c0-5.646-1.596-9.214-4.783-10.705c-3.19-1.49-9.258-2.49-18.207-3.004v-8.178h85.934c23.655,0,41.988,3.727,55,11.177
		c13.009,7.452,19.516,19.502,19.516,36.149c0,16.136-8.023,29.034-24.07,38.695c-8.641,5.241-20.213,9.61-34.717,13.103
		c13.27,4.735,22.682,9.473,28.236,14.208c9.359,7.927,14.041,18.788,14.041,32.581c0,17.399-7.148,32.663-21.44,45.788
		c-14.292,13.125-38.198,19.688-71.719,19.688h-95.474V425.361z M203.756,422.429c2.575,0.825,6.594,1.234,12.057,1.234
		c20.093,0,34.52-9.255,43.28-27.766c5.256-11.003,7.884-22.417,7.884-34.242c0-14.5-4.991-24.271-14.967-29.31
		c-5.967-2.979-16.872-4.831-32.711-5.552l-20.953,77.12c-0.412,1.234-0.747,2.649-1.003,4.243
		c-0.258,1.596-0.386,3.421-0.386,5.478C196.958,417.955,199.224,420.886,203.756,422.429z M253.597,313.436
		c5.707-1.29,10.981-4.091,15.825-8.405c6.078-5.441,10.456-12.987,13.134-22.641c1.75-6.263,2.628-12.474,2.628-18.636
		c0-9.239-1.965-16.761-5.89-22.562c-3.928-5.8-11.679-8.703-23.253-8.703c-4.858,0-8.243,1.131-10.152,3.39
		c-1.912,2.259-3.489,5.75-4.728,10.473l-19.26,70.873C237.326,315.988,247.89,314.725,253.597,313.436z"/>
	<path style="display:inline;fill:#FFFFFF;" d="M355.76,402.665c0.617-2.777,1.645-6.842,3.086-12.194l37.287-136.205
		c0.926-3.501,1.596-6.331,2.008-8.494c0.412-2.16,0.62-4.014,0.62-5.56c0-4.631-1.545-7.462-4.631-8.491
		c-3.088-1.029-8.13-1.442-15.124-1.237v-8.332c15.642-1.543,26.221-2.7,31.734-3.472s16.876-2.751,34.09-5.94L399.123,377.96
		c-2.264,8.339-3.652,13.641-4.166,15.907c-1.852,7.518-2.777,12.51-2.777,14.979c0,2.163,0.564,3.604,1.697,4.325
		c1.131,0.721,2.16,1.08,3.086,1.08c3.091,0,7.038-2.674,11.84-8.023c4.803-5.347,9.062-11.109,12.78-17.281l6.943,4.475
		c-9.272,14.195-16.79,24.07-22.556,29.625c-9.581,9.258-19.777,13.887-30.592,13.887c-5.873,0-10.943-1.982-15.215-5.943
		c-4.272-3.961-6.408-9.183-6.408-15.668C353.754,412.648,354.422,408.429,355.76,402.665z"/>
	<path style="display:inline;fill:#FFFFFF;" d="M559.986,295.289c14.812,8.436,22.219,22.785,22.219,43.049
		c0,22.426-8.539,44.182-25.613,65.268c-18.619,22.939-39.912,34.408-63.878,34.408c-12.243,0-23.839-3.807-34.794-11.418
		s-16.433-20.468-16.433-38.574c0-22.527,8.486-44.334,25.459-65.422c18.617-23.041,40.064-34.562,64.341-34.562
		C541.984,288.037,551.551,290.455,559.986,295.289z M481.141,419.343c2.57,5.863,7.406,8.795,14.504,8.795
		c13.166,0,24.996-15.121,35.488-45.363c8.742-25.406,13.115-47.369,13.115-65.885c0-4.938-0.617-8.795-1.852-11.572
		c-2.367-5.143-6.789-7.715-13.27-7.715c-15.121,0-27.826,16.047-38.111,48.141c-7.922,24.379-11.881,44.645-11.881,60.793
		C479.135,411.99,479.803,416.257,481.141,419.343z"/>
	<path style="display:inline;fill:#FFFFFF;" d="M627.105,320.285c18.926-21.703,39.5-32.557,61.719-32.557
		c11.828,0,20.754,2.908,26.771,8.718c6.018,5.812,9.025,12.37,9.025,19.673c0,6.789-2.006,12.166-6.018,16.124
		c-4.012,3.961-8.744,5.94-14.195,5.94c-4.115,0-8.127-1.413-12.035-4.243c-3.91-2.828-5.863-7.021-5.863-12.575
		c0-2.261,0.232-4.012,0.695-5.246s1.465-3.137,3.008-5.709l1.389-2.314c0.719-1.131,1.209-2.006,1.467-2.623
		c0.255-0.617,0.385-1.285,0.385-2.006c0-1.748-0.824-3.11-2.469-4.089c-1.646-0.977-3.602-1.466-5.863-1.466
		c-11.316,0-22.064,11.727-32.248,35.18c-9.053,20.883-13.578,38.986-13.578,54.312c0,6.997,1.336,13.064,4.012,18.207
		c4.012,7.922,10.594,11.881,19.75,11.881c6.789,0,13.294-2.493,19.52-7.483c6.223-4.988,12.42-12.009,18.592-21.062l8.795,5.863
		c-10.184,14.195-18.568,24.02-25.15,29.471c-11.213,9.157-24.277,13.732-39.191,13.732c-11.316,0-21.886-4.012-31.707-12.035
		c-9.824-8.023-14.736-20.367-14.736-37.031C599.178,364.568,608.486,341.681,627.105,320.285z"/>
	<path style="display:inline;fill:#FFFFFF;" d="M734.65,433.539l49.074-179.276c0.92-3.501,1.584-6.228,1.994-8.183
		c0.41-1.956,0.615-3.86,0.615-5.714c0-4.735-1.49-7.616-4.469-8.646s-8.068-1.442-15.268-1.237v-8.332
		c15.512-1.748,26.285-3.06,32.324-3.935c6.037-0.873,17.143-2.7,33.312-5.478l-38.951,144.639
		c11.992-8.708,22.432-16.948,31.322-24.726c13.68-12.042,20.521-20.432,20.521-25.169c0-3.395-1.518-5.531-4.551-6.406
		c-3.035-0.875-6.92-1.314-11.65-1.314v-8.023h65.576v8.023c-5.145,0.208-10.955,1.852-17.436,4.938s-14.967,9.361-25.459,18.824
		l-10.977,9.983c-2.68,2.498-5.023,4.626-7.033,6.389c-2.01,1.765-2.604,2.235-1.779,1.41c0-0.617,1.059,4.757,3.178,16.119
		c2.119,11.365,3.748,19.094,4.885,23.188c3.908,13.786,6.814,22.759,8.719,26.925c1.902,4.166,4.705,6.249,8.408,6.249
		s7.199-2.006,10.492-6.018c2.057-2.57,4.938-7.353,8.641-14.35l6.943,3.549c-5.246,10.7-11.316,19.958-18.207,27.773
		c-6.893,7.818-14.916,11.727-24.07,11.727c-6.996,0-12.807-2.314-17.436-6.943s-8.436-10.801-11.418-18.516
		c-3.189-8.154-5.785-17.544-7.791-28.174c-2.006-10.629-3.01-16.408-3.01-17.339l-12.344,8.79l-15.738,59.25H734.65z"/>
	<path style="display:inline;fill:#FFFFFF;" d="M276.235,600.889c11.469,3.086,18.335,4.629,20.599,4.629
		c3.291,0,5.76-0.822,7.406-2.469c1.644-1.645,3.24-3.908,4.783-6.789h9.566l-16.047,73.908l-9.875-1.852
		c0.309-4.422,0.487-7.021,0.54-7.792c0.051-0.771,0.077-1.929,0.077-3.472c0-16.664-3.911-29.059-11.727-37.186
		c-7.818-8.125-17.744-12.189-29.779-12.189c-24.482,0-45.775,16.254-63.879,48.758c-16.254,29.008-24.379,58.582-24.379,88.721
		c0,21.91,5.015,36.903,15.044,44.978c10.029,8.076,20.958,12.112,32.788,12.112c15.43,0,29.984-5.092,43.666-15.275
		c7.406-5.555,14.812-13.012,22.219-22.373l9.566,6.943c-10.904,16.047-23.865,27.98-38.883,35.797
		c-15.02,7.816-30.242,11.727-45.672,11.727c-25.305,0-46.212-7.431-62.722-22.296c-16.51-14.863-24.765-34.741-24.765-59.636
		c0-38.059,12.652-71.027,37.957-98.904c25.305-27.979,55.339-41.969,90.109-41.969C253.63,596.26,264.764,597.803,276.235,600.889z
		"/>
	<path style="display:inline;fill:#FFFFFF;" d="M322.292,812.738l49.062-179.23c0.514-1.957,1.08-4.33,1.697-7.114
		s0.926-5.054,0.926-6.809c0-4.744-1.492-7.63-4.475-8.662c-2.984-1.032-8.076-1.444-15.275-1.239v-8.332
		c15.203-1.543,25.546-2.7,31.026-3.472c5.478-0.771,17.014-2.751,34.604-5.94L386.22,721.395l0.713,0.309
		c-1.029,1.029-0.494,0.104,1.608-2.777c2.1-2.879,5.25-7.045,9.453-12.498c9.426-12.344,18.366-21.961,26.818-28.854
		c8.453-6.891,17.546-10.338,27.282-10.338c7.377,0,13.248,2.059,17.611,6.172c4.364,4.115,6.546,10.287,6.546,18.516
		c0,3.395-0.362,6.738-1.08,10.029c-0.721,3.293-2.573,9.516-5.555,18.67l-21.107,65.422c-0.309,1.338-0.463,2.264-0.463,2.777
		c0,1.646,0.514,2.958,1.543,3.935c1.027,0.979,2.211,1.466,3.549,1.466c2.777,0,6.943-3.395,12.498-10.184
		c2.777-3.6,6.582-9,11.418-16.201l6.943,4.783c-9.458,14.504-16.932,24.482-22.424,29.934
		c-9.152,9.053-18.916,13.578-29.288,13.578c-5.694,0-10.666-1.673-14.909-5.015s-6.365-8.614-6.365-15.815
		c0-4.629,1.027-10.979,3.086-19.056c2.057-8.074,4.677-17.101,7.864-27.079l15.37-47.215c0.205-0.719,0.386-1.466,0.54-2.237
		s0.231-1.517,0.231-2.237c0-2.982-0.82-4.938-2.459-5.863c-1.639-0.926-3.329-1.389-5.07-1.389
		c-6.247,0-13.568,5.092-21.963,15.275c-8.395,10.184-15.102,20.008-20.119,29.471c-5.121,9.566-10.203,21.756-15.247,36.568
		c-2.782,8.539-6.953,22.271-12.513,41.197H322.292z"/>
	<path style="display:inline;fill:#FFFFFF;" d="M525.012,704.422c19.113-24.996,38.536-37.494,58.267-37.494
		c8.014,0,13.923,2.367,17.726,7.098c2.261,2.881,4.264,7.715,6.012,14.504l5.357-16.818l32.996-2.314l-20.58,73.908
		c-2.934,10.492-5.015,18.516-6.244,24.07c-2.777,10.596-4.166,18.156-4.166,22.682c0,1.852,0.41,3.139,1.234,3.857
		c0.822,0.721,1.748,1.08,2.777,1.08c1.852,0,3.65-0.694,5.4-2.083c1.748-1.389,3.703-3.368,5.863-5.94
		c1.027-1.131,2.775-3.265,5.244-6.403c2.469-3.137,4.525-5.786,6.172-7.946l6.635,4.783c-8.54,12.551-16.691,22.373-24.457,29.471
		c-7.768,7.098-15.609,10.646-23.529,10.646c-4.837,0-9.516-1.801-14.041-5.4c-4.528-3.6-6.789-8.896-6.789-15.893
		c0-2.674,1.335-9.205,4.012-19.596c0.409-0.41,0.023,0.309-1.158,2.16c-1.184,1.852-3.008,4.578-5.477,8.178
		c-5.555,8.436-12.113,15.584-19.674,21.447s-15.969,8.795-25.227,8.795c-8.332,0-16.101-3.139-23.299-9.412
		c-7.201-6.273-10.801-16.92-10.801-31.939C497.265,752.615,506.513,728.801,525.012,704.422z M598.11,687.295
		c-1.953-4.73-5.601-7.098-10.943-7.098c-11.408,0-23.122,13.527-35.144,40.58c-10.584,23.969-15.875,42.33-15.875,55.084
		c0,5.041,1.258,9.412,3.775,13.115c2.517,3.703,5.832,5.555,9.941,5.555c10.48,0.104,22.35-13.783,35.604-41.66
		c9.453-23.35,14.181-41.865,14.181-55.547C599.65,693.211,599.137,689.867,598.11,687.295z"/>
	<path style="display:inline;fill:#FFFFFF;" d="M662.729,782.342c0.719-3.188,1.799-7.406,3.24-12.652l19.433-70.977
		c0.204-0.822,0.386-1.645,0.54-2.469c0.154-0.822,0.231-1.594,0.231-2.314c0-4.217-1.336-6.84-4.007-7.869
		c-2.672-1.027-7.549-1.697-14.635-2.006v-8.332c5.924-0.41,14.528-1.259,25.814-2.546c11.285-1.285,19.277-2.392,23.976-3.317
		l13.481-2.623l-24.533,89.955c-2.059,7.715-3.447,13.064-4.166,16.047c-1.852,7.613-2.777,12.551-2.777,14.812
		c0,2.264,0.514,3.729,1.543,4.397c1.027,0.67,2.16,1.003,3.4,1.003c3.196,0,7.164-2.725,11.909-8.178
		c4.745-5.451,8.921-11.16,12.532-17.127l6.943,4.475c-10.303,15.121-18.184,25.305-23.642,30.551
		c-8.962,8.641-18.54,12.961-28.737,12.961c-5.77,0-10.945-1.774-15.527-5.323c-4.58-3.549-6.871-8.974-6.871-16.278
		C660.877,791.961,661.494,787.896,662.729,782.342z M737.043,602.895c4.112,4.115,6.172,9.104,6.172,14.967
		s-2.06,10.878-6.172,15.044c-4.115,4.166-9.104,6.249-14.967,6.249s-10.879-2.083-15.045-6.249s-6.248-9.181-6.248-15.044
		s2.082-10.852,6.248-14.967c4.166-4.113,9.182-6.172,15.045-6.172S732.928,598.781,737.043,602.895z"/>
	<path style="display:inline;fill:#FFFFFF;" d="M747.844,812.738l27.623-100.91c1.131-4.113,1.953-7.354,2.469-9.721
		c1.027-4.422,1.543-7.508,1.543-9.258c0-3.805-1.184-6.172-3.549-7.098c-2.367-0.926-6.943-1.49-13.732-1.697v-8.332
		c13.09-0.822,23.264-1.748,30.525-2.777c7.262-1.027,18.1-2.932,32.521-5.709l-18.725,58.479l0.832,0.463
		c-0.516,0.516,2.59-4.19,9.314-14.118c6.725-9.926,13.141-17.976,19.246-24.147c6.002-6.273,12.287-11.288,18.859-15.044
		c6.568-3.754,13.477-5.632,20.721-5.632c6.727,0,12.443,1.904,17.152,5.709c4.707,3.807,7.062,10.029,7.062,18.67
		c0,8.023-4.631,25.717-13.891,53.078c-9.383,27.26-14.072,41.867-14.072,43.82c0,1.852,0.564,3.267,1.697,4.243
		c1.131,0.979,2.262,1.466,3.395,1.466c2.777,0,6.891-3.496,12.344-10.492c2.879-3.703,6.018-8.279,9.412-13.732l6.943,4.475
		c-7.717,12.652-14.266,21.756-19.646,27.311c-9.342,9.566-19.242,14.35-29.699,14.35c-5.584,0-10.6-1.646-15.045-4.938
		s-6.666-8.486-6.666-15.584c0-4.525,1.08-11.109,3.24-19.75s4.631-17.537,7.418-26.693l14.434-47.215
		c0.309-1.131,0.564-2.107,0.771-2.932c0.205-0.822,0.309-1.645,0.309-2.469c0-2.365-0.793-4.012-2.379-4.938
		s-3.299-1.389-5.135-1.389c-6.438,0-13.586,5.015-21.449,15.044c-7.865,10.029-14.299,20.034-19.305,30.011
		c-5.414,10.801-9.928,21.756-13.539,32.865c-3.615,11.109-7.93,25.975-12.949,44.592H747.844z"/>
</g>
<path style="fill:#FFFFFF;" d="M902.25,512c0,160.438-130.062,290.5-290.5,290.5c-160.439,0-290.5-130.062-290.5-290.5
	c0-160.439,130.061-290.5,290.5-290.5C772.188,221.5,902.25,351.561,902.25,512z M321.75,312c-110.457,0-200,89.543-200,200
	s89.543,200,200,200s200-89.543,200-200S432.207,312,321.75,312z"/>
<g>
</g>
<g>
</g>
<g>
</g>
<g>
</g>
<g>
</g>
<g>
</g>
<g>
</g>
<g>
</g>
<g>
</g>
<g>
</g>
<g>
</g>
<g>
</g>
<g>
</g>
<g>
</g>
<g>
</g>
</svg>
