<?xml version="1.0" encoding="iso-8859-1"?>
<!-- Generator: Adobe Illustrator 16.0.4, SVG Export Plug-In . SVG Version: 6.00 Build 0)  -->
<!DOCTYPE svg PUBLIC "-//W3C//DTD SVG 1.1//EN" "http://www.w3.org/Graphics/SVG/1.1/DTD/svg11.dtd">
<svg version="1.1" id="Layer_1" xmlns="http://www.w3.org/2000/svg" xmlns:xlink="http://www.w3.org/1999/xlink" x="0px" y="0px"
	 width="1024px" height="1024px" viewBox="0 0 1024 1024" style="enable-background:new 0 0 1024 1024;" xml:space="preserve">
<path style="display:none;fill:#F2A900;" d="M1024,768c0,141.385-114.615,256-256,256H256C114.615,1024,0,909.385,0,768V256
	C0,114.615,114.615,0,256,0h512c141.385,0,256,114.615,256,256V768z"/>
<polygon style="display:none;fill:#FFFFFF;" points="511.5,599.155 396.845,424.5 511.5,249.845 626.155,424.5 "/>
<path style="fill:#FFFFFF;" d="M778.586,255.625C842.422,194.785,885.482,112.337,896,20
	c-45.572,77.11-113.716,139.29-195.329,177.476C644.947,165.98,580.574,148,512,148c-68.575,0-132.947,17.98-188.67,49.476
	C241.716,159.29,173.572,97.11,128,20c10.518,92.337,53.578,174.784,117.414,235.625C173.027,325.464,128,423.472,128,532
	c0,212.077,171.922,384,384,384c212.077,0,384-171.923,384-384C896,423.472,850.973,325.464,778.586,255.625z M512,660.005
	L383.995,532L512,403.995L640.005,532L512,660.005z"/>
<g>
</g>
<g>
</g>
<g>
</g>
<g>
</g>
<g>
</g>
<g>
</g>
<g>
</g>
<g>
</g>
<g>
</g>
<g>
</g>
<g>
</g>
<g>
</g>
<g>
</g>
<g>
</g>
<g>
</g>
</svg>
